<mxfile host="app.diagrams.net" modified="2022-05-20T09:27:31.614Z" agent="5.0 (Windows NT 10.0; Win64; x64) AppleWebKit/537.36 (KHTML, like Gecko) Chrome/100.0.4896.75 Safari/537.36" etag="ey66EqtBsTGsUxJ0PqE5" version="18.0.8" type="github">
  <diagram id="t5WRRw7tWUzWlsUwgCJq" name="第 1 页">
    <mxGraphModel dx="1662" dy="796" grid="1" gridSize="10" guides="1" tooltips="1" connect="1" arrows="1" fold="1" page="1" pageScale="1" pageWidth="2339" pageHeight="3300" math="0" shadow="0">
      <root>
        <mxCell id="0" />
        <mxCell id="1" parent="0" />
        <mxCell id="qTCErR7RIJ27b2Tfh1Eh-13" style="edgeStyle=orthogonalEdgeStyle;rounded=0;orthogonalLoop=1;jettySize=auto;html=1;entryX=0.5;entryY=0;entryDx=0;entryDy=0;" parent="1" source="qTCErR7RIJ27b2Tfh1Eh-1" target="qTCErR7RIJ27b2Tfh1Eh-2" edge="1">
          <mxGeometry relative="1" as="geometry" />
        </mxCell>
        <mxCell id="qTCErR7RIJ27b2Tfh1Eh-1" value="开始" style="ellipse;whiteSpace=wrap;html=1;" parent="1" vertex="1">
          <mxGeometry x="550" y="90" width="80" height="50" as="geometry" />
        </mxCell>
        <mxCell id="qTCErR7RIJ27b2Tfh1Eh-14" style="edgeStyle=orthogonalEdgeStyle;rounded=0;orthogonalLoop=1;jettySize=auto;html=1;" parent="1" source="qTCErR7RIJ27b2Tfh1Eh-2" edge="1">
          <mxGeometry relative="1" as="geometry">
            <mxPoint x="1020" y="930" as="targetPoint" />
            <Array as="points">
              <mxPoint x="1220" y="215" />
              <mxPoint x="1220" y="930" />
            </Array>
          </mxGeometry>
        </mxCell>
        <mxCell id="qTCErR7RIJ27b2Tfh1Eh-16" style="edgeStyle=orthogonalEdgeStyle;rounded=0;orthogonalLoop=1;jettySize=auto;html=1;entryX=0.5;entryY=0;entryDx=0;entryDy=0;" parent="1" source="qTCErR7RIJ27b2Tfh1Eh-2" target="qTCErR7RIJ27b2Tfh1Eh-6" edge="1">
          <mxGeometry relative="1" as="geometry" />
        </mxCell>
        <mxCell id="qTCErR7RIJ27b2Tfh1Eh-2" value="是否开启第三方限流" style="rhombus;whiteSpace=wrap;html=1;" parent="1" vertex="1">
          <mxGeometry x="525" y="160" width="130" height="110" as="geometry" />
        </mxCell>
        <mxCell id="qTCErR7RIJ27b2Tfh1Eh-18" value="" style="edgeStyle=orthogonalEdgeStyle;rounded=0;orthogonalLoop=1;jettySize=auto;html=1;" parent="1" source="qTCErR7RIJ27b2Tfh1Eh-6" target="qTCErR7RIJ27b2Tfh1Eh-17" edge="1">
          <mxGeometry relative="1" as="geometry" />
        </mxCell>
        <mxCell id="qTCErR7RIJ27b2Tfh1Eh-24" style="edgeStyle=orthogonalEdgeStyle;rounded=0;orthogonalLoop=1;jettySize=auto;html=1;exitX=0.5;exitY=1;exitDx=0;exitDy=0;entryX=0.5;entryY=0;entryDx=0;entryDy=0;" parent="1" source="qTCErR7RIJ27b2Tfh1Eh-6" target="qTCErR7RIJ27b2Tfh1Eh-7" edge="1">
          <mxGeometry relative="1" as="geometry" />
        </mxCell>
        <mxCell id="qTCErR7RIJ27b2Tfh1Eh-6" value="是否开启行为限流" style="rhombus;whiteSpace=wrap;html=1;" parent="1" vertex="1">
          <mxGeometry x="525" y="330" width="130" height="110" as="geometry" />
        </mxCell>
        <mxCell id="qTCErR7RIJ27b2Tfh1Eh-28" style="edgeStyle=orthogonalEdgeStyle;rounded=0;orthogonalLoop=1;jettySize=auto;html=1;exitX=0.5;exitY=1;exitDx=0;exitDy=0;entryX=0.5;entryY=0;entryDx=0;entryDy=0;" parent="1" source="qTCErR7RIJ27b2Tfh1Eh-7" target="qTCErR7RIJ27b2Tfh1Eh-8" edge="1">
          <mxGeometry relative="1" as="geometry" />
        </mxCell>
        <mxCell id="qTCErR7RIJ27b2Tfh1Eh-31" value="" style="edgeStyle=orthogonalEdgeStyle;rounded=0;orthogonalLoop=1;jettySize=auto;html=1;" parent="1" source="qTCErR7RIJ27b2Tfh1Eh-7" target="qTCErR7RIJ27b2Tfh1Eh-30" edge="1">
          <mxGeometry relative="1" as="geometry" />
        </mxCell>
        <mxCell id="qTCErR7RIJ27b2Tfh1Eh-7" value="是否开启&lt;br&gt;会员、购买合集&lt;br&gt;限流" style="rhombus;whiteSpace=wrap;html=1;" parent="1" vertex="1">
          <mxGeometry x="525" y="520" width="130" height="110" as="geometry" />
        </mxCell>
        <mxCell id="qTCErR7RIJ27b2Tfh1Eh-11" style="edgeStyle=orthogonalEdgeStyle;rounded=0;orthogonalLoop=1;jettySize=auto;html=1;entryX=0.5;entryY=0;entryDx=0;entryDy=0;" parent="1" source="qTCErR7RIJ27b2Tfh1Eh-8" target="qTCErR7RIJ27b2Tfh1Eh-9" edge="1">
          <mxGeometry relative="1" as="geometry" />
        </mxCell>
        <mxCell id="qTCErR7RIJ27b2Tfh1Eh-37" value="" style="edgeStyle=orthogonalEdgeStyle;rounded=0;orthogonalLoop=1;jettySize=auto;html=1;" parent="1" source="qTCErR7RIJ27b2Tfh1Eh-8" target="qTCErR7RIJ27b2Tfh1Eh-36" edge="1">
          <mxGeometry relative="1" as="geometry" />
        </mxCell>
        <mxCell id="qTCErR7RIJ27b2Tfh1Eh-8" value="是否开启&lt;br&gt;会员限流" style="rhombus;whiteSpace=wrap;html=1;" parent="1" vertex="1">
          <mxGeometry x="525" y="730" width="130" height="110" as="geometry" />
        </mxCell>
        <mxCell id="qTCErR7RIJ27b2Tfh1Eh-9" value="结束" style="ellipse;whiteSpace=wrap;html=1;" parent="1" vertex="1">
          <mxGeometry x="550" y="980" width="80" height="50" as="geometry" />
        </mxCell>
        <mxCell id="qTCErR7RIJ27b2Tfh1Eh-45" style="edgeStyle=orthogonalEdgeStyle;rounded=0;orthogonalLoop=1;jettySize=auto;html=1;" parent="1" source="qTCErR7RIJ27b2Tfh1Eh-10" edge="1">
          <mxGeometry relative="1" as="geometry">
            <mxPoint x="590" y="930" as="targetPoint" />
          </mxGeometry>
        </mxCell>
        <mxCell id="qTCErR7RIJ27b2Tfh1Eh-10" value="返回限流状态" style="rounded=0;whiteSpace=wrap;html=1;" parent="1" vertex="1">
          <mxGeometry x="895" y="900" width="120" height="60" as="geometry" />
        </mxCell>
        <mxCell id="qTCErR7RIJ27b2Tfh1Eh-15" value="Y，开启第三方故障限流" style="text;html=1;strokeColor=none;fillColor=none;align=center;verticalAlign=middle;whiteSpace=wrap;rounded=0;" parent="1" vertex="1">
          <mxGeometry x="690" y="180" width="170" height="30" as="geometry" />
        </mxCell>
        <mxCell id="qTCErR7RIJ27b2Tfh1Eh-22" style="edgeStyle=orthogonalEdgeStyle;rounded=0;orthogonalLoop=1;jettySize=auto;html=1;" parent="1" source="qTCErR7RIJ27b2Tfh1Eh-17" edge="1">
          <mxGeometry relative="1" as="geometry">
            <mxPoint x="1130" y="920" as="targetPoint" />
            <Array as="points">
              <mxPoint x="1130" y="390" />
            </Array>
          </mxGeometry>
        </mxCell>
        <mxCell id="qTCErR7RIJ27b2Tfh1Eh-25" style="edgeStyle=orthogonalEdgeStyle;rounded=0;orthogonalLoop=1;jettySize=auto;html=1;" parent="1" source="qTCErR7RIJ27b2Tfh1Eh-17" edge="1">
          <mxGeometry relative="1" as="geometry">
            <mxPoint x="590" y="490" as="targetPoint" />
            <Array as="points">
              <mxPoint x="950" y="490" />
            </Array>
          </mxGeometry>
        </mxCell>
        <mxCell id="qTCErR7RIJ27b2Tfh1Eh-17" value="是否命中&lt;br&gt;行为限流缓存" style="rhombus;whiteSpace=wrap;html=1;" parent="1" vertex="1">
          <mxGeometry x="890" y="330" width="130" height="110" as="geometry" />
        </mxCell>
        <mxCell id="qTCErR7RIJ27b2Tfh1Eh-19" value="N,未第三方故障开启限流" style="text;html=1;strokeColor=none;fillColor=none;align=center;verticalAlign=middle;whiteSpace=wrap;rounded=0;" parent="1" vertex="1">
          <mxGeometry x="435" y="280" width="145" height="30" as="geometry" />
        </mxCell>
        <mxCell id="qTCErR7RIJ27b2Tfh1Eh-20" value="Y，开启行为限流" style="text;html=1;strokeColor=none;fillColor=none;align=center;verticalAlign=middle;whiteSpace=wrap;rounded=0;" parent="1" vertex="1">
          <mxGeometry x="690" y="350" width="100" height="30" as="geometry" />
        </mxCell>
        <mxCell id="qTCErR7RIJ27b2Tfh1Eh-23" value="Y，命中URL黑名单" style="text;html=1;strokeColor=none;fillColor=none;align=center;verticalAlign=middle;whiteSpace=wrap;rounded=0;" parent="1" vertex="1">
          <mxGeometry x="1030" y="350" width="120" height="30" as="geometry" />
        </mxCell>
        <mxCell id="qTCErR7RIJ27b2Tfh1Eh-26" value="N，未命中" style="text;html=1;strokeColor=none;fillColor=none;align=center;verticalAlign=middle;whiteSpace=wrap;rounded=0;" parent="1" vertex="1">
          <mxGeometry x="940" y="450" width="120" height="30" as="geometry" />
        </mxCell>
        <mxCell id="qTCErR7RIJ27b2Tfh1Eh-27" value="N，未开启行为限流" style="text;html=1;strokeColor=none;fillColor=none;align=center;verticalAlign=middle;whiteSpace=wrap;rounded=0;" parent="1" vertex="1">
          <mxGeometry x="435" y="440" width="125" height="30" as="geometry" />
        </mxCell>
        <mxCell id="qTCErR7RIJ27b2Tfh1Eh-32" style="edgeStyle=orthogonalEdgeStyle;rounded=0;orthogonalLoop=1;jettySize=auto;html=1;" parent="1" source="qTCErR7RIJ27b2Tfh1Eh-30" edge="1">
          <mxGeometry relative="1" as="geometry">
            <mxPoint x="1090" y="920" as="targetPoint" />
            <Array as="points">
              <mxPoint x="1090" y="570" />
            </Array>
          </mxGeometry>
        </mxCell>
        <mxCell id="qTCErR7RIJ27b2Tfh1Eh-34" style="edgeStyle=orthogonalEdgeStyle;rounded=0;orthogonalLoop=1;jettySize=auto;html=1;" parent="1" source="qTCErR7RIJ27b2Tfh1Eh-30" edge="1">
          <mxGeometry relative="1" as="geometry">
            <mxPoint x="600" y="670" as="targetPoint" />
            <Array as="points">
              <mxPoint x="950" y="670" />
            </Array>
          </mxGeometry>
        </mxCell>
        <mxCell id="qTCErR7RIJ27b2Tfh1Eh-30" value="是否命中&lt;br&gt;会员、购买合集&lt;br&gt;缓存" style="rhombus;whiteSpace=wrap;html=1;" parent="1" vertex="1">
          <mxGeometry x="890" y="520" width="130" height="110" as="geometry" />
        </mxCell>
        <mxCell id="qTCErR7RIJ27b2Tfh1Eh-33" value="N,未命中，属于黑名单" style="text;html=1;strokeColor=none;fillColor=none;align=center;verticalAlign=middle;whiteSpace=wrap;rounded=0;" parent="1" vertex="1">
          <mxGeometry x="990" y="530" width="130" height="30" as="geometry" />
        </mxCell>
        <mxCell id="qTCErR7RIJ27b2Tfh1Eh-35" value="Y,命中，属于白名单" style="text;html=1;strokeColor=none;fillColor=none;align=center;verticalAlign=middle;whiteSpace=wrap;rounded=0;" parent="1" vertex="1">
          <mxGeometry x="950" y="630" width="130" height="30" as="geometry" />
        </mxCell>
        <mxCell id="qTCErR7RIJ27b2Tfh1Eh-40" style="edgeStyle=orthogonalEdgeStyle;rounded=0;orthogonalLoop=1;jettySize=auto;html=1;" parent="1" source="qTCErR7RIJ27b2Tfh1Eh-36" edge="1">
          <mxGeometry relative="1" as="geometry">
            <mxPoint x="1060" y="920" as="targetPoint" />
            <Array as="points">
              <mxPoint x="1060" y="785" />
            </Array>
          </mxGeometry>
        </mxCell>
        <mxCell id="qTCErR7RIJ27b2Tfh1Eh-44" style="edgeStyle=orthogonalEdgeStyle;rounded=0;orthogonalLoop=1;jettySize=auto;html=1;" parent="1" source="qTCErR7RIJ27b2Tfh1Eh-36" edge="1">
          <mxGeometry relative="1" as="geometry">
            <mxPoint x="590" y="880" as="targetPoint" />
            <Array as="points">
              <mxPoint x="950" y="870" />
            </Array>
          </mxGeometry>
        </mxCell>
        <mxCell id="qTCErR7RIJ27b2Tfh1Eh-36" value="是否命中&lt;br&gt;会员缓存" style="rhombus;whiteSpace=wrap;html=1;" parent="1" vertex="1">
          <mxGeometry x="890" y="733.75" width="120" height="102.5" as="geometry" />
        </mxCell>
        <mxCell id="qTCErR7RIJ27b2Tfh1Eh-41" value="N,未命中，&lt;br&gt;属于黑名单" style="text;html=1;strokeColor=none;fillColor=none;align=center;verticalAlign=middle;whiteSpace=wrap;rounded=0;" parent="1" vertex="1">
          <mxGeometry x="980" y="750" width="130" height="30" as="geometry" />
        </mxCell>
        <mxCell id="qTCErR7RIJ27b2Tfh1Eh-46" value="Y,命中，属于白名单" style="text;html=1;strokeColor=none;fillColor=none;align=center;verticalAlign=middle;whiteSpace=wrap;rounded=0;" parent="1" vertex="1">
          <mxGeometry x="790" y="836.25" width="130" height="30" as="geometry" />
        </mxCell>
        <mxCell id="qTCErR7RIJ27b2Tfh1Eh-47" value="N，未开启会员、购买合集限流" style="text;html=1;strokeColor=none;fillColor=none;align=center;verticalAlign=middle;whiteSpace=wrap;rounded=0;" parent="1" vertex="1">
          <mxGeometry x="400" y="640" width="170" height="30" as="geometry" />
        </mxCell>
        <mxCell id="qTCErR7RIJ27b2Tfh1Eh-48" value="N，未开会员限流" style="text;html=1;strokeColor=none;fillColor=none;align=center;verticalAlign=middle;whiteSpace=wrap;rounded=0;" parent="1" vertex="1">
          <mxGeometry x="410" y="836.25" width="170" height="30" as="geometry" />
        </mxCell>
      </root>
    </mxGraphModel>
  </diagram>
</mxfile>
